<svg width="240" height="44" viewBox="0 0 240 44" fill="none" xmlns="http://www.w3.org/2000/svg">
<path d="M106.055 18.9082C106.935 17.2614 108.147 15.9724 109.694 15.043C111.24 14.1136 112.972 13.6484 114.893 13.6484C117.318 13.6484 119.359 14.2141 121.017 15.3464C122.674 16.4778 123.886 18.0642 124.655 20.1058H123.078C122.472 18.4891 121.466 17.2102 120.061 16.2708C118.657 15.3304 116.934 14.8611 114.893 14.8611C113.255 14.8611 111.77 15.25 110.436 16.0277C109.102 16.8063 108.051 17.9285 107.283 19.3934C106.515 20.8592 106.131 22.5714 106.131 24.5316C106.131 26.4718 106.515 28.1655 107.283 29.6103C108.051 31.0552 109.102 32.1715 110.436 32.9601C111.77 33.7479 113.255 34.1426 114.893 34.1426C116.934 34.1426 118.657 33.6725 120.061 32.7322C121.466 31.7927 122.472 30.5146 123.078 28.8971H124.655C123.886 30.9395 122.674 32.5252 121.017 33.6574C119.359 34.7896 117.318 35.3553 114.893 35.3553C112.972 35.3553 111.24 34.8952 109.694 33.9759C108.147 33.0557 106.935 31.7726 106.055 30.1249C105.176 28.4781 104.736 26.6134 104.736 24.5316C104.736 22.4298 105.176 20.5558 106.055 18.9082Z" fill="white"/>
<path d="M128.488 22.4394C129.166 21.1664 130.105 20.1867 131.308 19.4986C132.51 18.8122 133.88 18.4678 135.416 18.4678C137.154 18.4678 138.63 18.8927 139.842 19.7416C141.054 20.5906 141.903 21.6717 142.389 22.985V18.6806H143.753V35.142H142.389V30.8067C141.903 32.1409 141.049 33.2379 139.827 34.0961C138.604 34.956 137.134 35.3851 135.416 35.3851C133.88 35.3851 132.51 35.0364 131.308 34.3392C130.105 33.6419 129.166 32.6513 128.488 31.3682C127.811 30.0843 127.473 28.5942 127.473 26.8963C127.473 25.1983 127.811 23.7133 128.488 22.4394ZM141.494 23.0914C140.898 21.9902 140.085 21.1412 139.054 20.5445C138.023 19.9486 136.871 19.6503 135.598 19.6503C134.264 19.6503 133.091 19.9386 132.081 20.5143C131.07 21.0909 130.282 21.924 129.716 23.016C129.15 24.1072 128.867 25.4011 128.867 26.8963C128.867 28.3922 129.15 29.6854 129.716 30.7765C130.282 31.8677 131.076 32.7066 132.096 33.2933C133.116 33.8791 134.284 34.1724 135.598 34.1724C136.871 34.1724 138.028 33.874 139.069 33.2782C140.11 32.6823 140.923 31.8333 141.51 30.7313C142.095 29.63 142.389 28.3511 142.389 26.8963C142.389 25.4615 142.09 24.1935 141.494 23.0914Z" fill="white"/>
<path d="M150.151 19.8632V30.7473C150.151 31.96 150.373 32.793 150.818 33.2481C151.262 33.7032 152.051 33.9303 153.182 33.9303H155.032V35.143H152.97C151.535 35.143 150.479 34.8044 149.802 34.1272C149.125 33.4501 148.787 32.3237 148.787 30.7473V19.8632H146.301V18.6807H148.787V14.4971H150.151V18.6807H155.032V19.8632H150.151Z" fill="white"/>
<path d="M172.797 27.4428H158.578C158.618 28.9178 158.942 30.1615 159.549 31.1714C160.155 32.1821 160.953 32.9406 161.944 33.4451C162.934 33.9504 164.015 34.2035 165.187 34.2035C166.804 34.2035 168.158 33.8046 169.25 33.0059C170.341 32.2073 171.029 31.1211 171.312 29.7467H172.737C172.413 31.4245 171.584 32.7838 170.25 33.8239C168.917 34.8656 167.229 35.3852 165.187 35.3852C163.651 35.3852 162.277 35.0425 161.065 34.3544C159.852 33.668 158.902 32.6824 158.214 31.3985C157.527 30.1154 157.184 28.6153 157.184 26.8972C157.184 25.1792 157.522 23.6832 158.199 22.4102C158.876 21.1372 159.821 20.1617 161.035 19.4845C162.246 18.8073 163.631 18.4688 165.187 18.4688C166.764 18.4688 168.133 18.8073 169.295 19.4845C170.457 20.1617 171.342 21.0609 171.948 22.1831C172.554 23.3044 172.857 24.5121 172.857 25.8052C172.857 26.5335 172.837 27.0791 172.797 27.4428ZM170.72 22.6222C170.144 21.6115 169.361 20.8589 168.37 20.3636C167.38 19.8683 166.309 19.6211 165.157 19.6211C164.005 19.6211 162.939 19.8683 161.959 20.3636C160.978 20.8589 160.18 21.6115 159.564 22.6222C158.947 23.6329 158.618 24.8657 158.578 26.3206H171.494C171.554 24.8657 171.296 23.6329 170.72 22.6222Z" fill="white"/>
<path d="M179.892 19.3027C180.922 18.6658 182.236 18.3481 183.833 18.3481V19.7729H183.378C181.76 19.7729 180.417 20.233 179.346 21.1523C178.274 22.0717 177.739 23.5727 177.739 25.6545V35.1431H176.375V18.6809H177.739V22.0767C178.143 20.864 178.861 19.9396 179.892 19.3027Z" fill="white"/>
<path d="M186.257 14.694C186.035 14.482 185.924 14.1937 185.924 13.83C185.924 13.4864 186.035 13.2039 186.257 12.981C186.479 12.7589 186.753 12.6475 187.076 12.6475C187.399 12.6475 187.672 12.7589 187.895 12.981C188.117 13.2039 188.229 13.4864 188.229 13.83C188.229 14.1937 188.117 14.482 187.895 14.694C187.672 14.9061 187.399 15.0125 187.076 15.0125C186.753 15.0125 186.479 14.9061 186.257 14.694ZM187.743 35.143H186.379V18.6807H187.743V35.143Z" fill="white"/>
<path d="M204.356 20.1517C205.589 21.3543 206.206 23.1377 206.206 25.5028V35.1431H204.871V25.5933C204.871 23.633 204.376 22.1329 203.386 21.0912C202.396 20.0511 201.052 19.5298 199.354 19.5298C197.575 19.5298 196.156 20.0964 195.095 21.2278C194.034 22.36 193.503 24.037 193.503 26.2604V35.1431H192.139V18.6809H193.503V22.1681C193.967 20.9353 194.741 19.9899 195.822 19.3329C196.903 18.6767 198.151 18.3481 199.566 18.3481C201.526 18.3481 203.123 18.949 204.356 20.1517Z" fill="white"/>
<path d="M221.939 19.7266C223.152 20.5655 224.001 21.6415 224.486 22.9548V18.6806H225.851V35.6575C225.851 37.1735 225.517 38.5019 224.85 39.6442C224.183 40.7856 223.284 41.6648 222.151 42.2816C221.02 42.8984 219.757 43.2068 218.363 43.2068C216.301 43.2068 214.593 42.7107 213.239 41.7209C211.884 40.7303 210.995 39.3969 210.571 37.7191H211.935C212.339 39.0324 213.097 40.0783 214.209 40.8569C215.32 41.6346 216.705 42.0243 218.363 42.0243C219.514 42.0243 220.555 41.7662 221.485 41.2507C222.415 40.7353 223.147 39.9978 223.683 39.0382C224.218 38.0778 224.486 36.9506 224.486 35.6575V30.8369C224.001 32.1518 223.147 33.2379 221.924 34.0961C220.702 34.956 219.232 35.3851 217.514 35.3851C215.977 35.3851 214.608 35.0364 213.405 34.3392C212.203 33.6419 211.263 32.6513 210.586 31.3682C209.909 30.0843 209.57 28.5942 209.57 26.8963C209.57 25.1983 209.909 23.7133 210.586 22.4394C211.263 21.1664 212.203 20.1867 213.405 19.4986C214.608 18.8122 215.977 18.4678 217.514 18.4678C219.252 18.4678 220.727 18.8876 221.939 19.7266ZM223.592 23.0914C222.995 21.9902 222.182 21.1412 221.152 20.5445C220.121 19.9486 218.968 19.6503 217.695 19.6503C216.361 19.6503 215.189 19.9386 214.179 20.5143C213.167 21.0909 212.38 21.924 211.814 23.016C211.248 24.1072 210.965 25.4011 210.965 26.8963C210.965 28.3922 211.248 29.6854 211.814 30.7765C212.38 31.8677 213.173 32.7066 214.194 33.2933C215.214 33.8791 216.381 34.1724 217.695 34.1724C218.968 34.1724 220.125 33.874 221.167 33.2782C222.208 32.6823 223.021 31.8333 223.607 30.7313C224.193 29.63 224.486 28.3511 224.486 26.8963C224.486 25.4615 224.188 24.1935 223.592 23.0914Z" fill="white"/>
<path d="M236.013 33.2625L234.87 31.298H234.111V33.2625H233.484V28.4595H235.035C235.398 28.4595 235.704 28.5215 235.954 28.6455C236.205 28.7696 236.392 28.9372 236.517 29.1484C236.641 29.3596 236.703 29.6009 236.703 29.8716C236.703 30.2027 236.607 30.4943 236.416 30.7466C236.226 30.9997 235.94 31.1673 235.559 31.2503L236.765 33.2625H236.013ZM234.111 30.7952H235.035C235.374 30.7952 235.63 30.7114 235.799 30.5438C235.969 30.3761 236.055 30.1524 236.055 29.8716C236.055 29.5867 235.971 29.3663 235.803 29.2104C235.635 29.0545 235.379 28.9757 235.035 28.9757H234.111V30.7952Z" fill="white"/>
<path d="M234.979 35.3246C232.496 35.3246 230.477 33.3048 230.477 30.8224C230.477 28.3401 232.496 26.3203 234.979 26.3203C237.461 26.3203 239.481 28.3401 239.481 30.8224C239.481 33.3048 237.461 35.3246 234.979 35.3246ZM234.979 26.8835C232.807 26.8835 231.04 28.6502 231.04 30.8224C231.04 32.9939 232.807 34.7605 234.979 34.7605C237.15 34.7605 238.918 32.9939 238.918 30.8224C238.918 28.6502 237.15 26.8835 234.979 26.8835Z" fill="white"/>
<path d="M45.3118 11.8582H41.6276V15.4997C39.7923 12.7047 37.1247 11.3076 33.6241 11.3076C30.6598 11.3076 28.133 12.3871 26.0437 14.5459C23.9536 16.7065 22.9102 19.3397 22.9102 22.4439C22.9102 25.5506 23.9536 28.1822 26.0437 30.3427C28.133 32.5024 30.6598 33.5819 33.6241 33.5819C37.1247 33.5819 39.7923 32.1848 41.6276 29.389V30.5749C41.6276 31.9317 42.728 33.0313 44.084 33.0313H46.7768V29.2851H45.3118V11.8582ZM39.4679 27.8436C38.0281 29.2985 36.2347 30.0251 34.0892 30.0251C31.9722 30.0251 30.1938 29.2985 28.754 27.8436C27.3142 26.3904 26.5943 24.5902 26.5943 22.4439C26.5943 20.2993 27.3142 18.5008 28.754 17.0451C30.1938 15.591 31.9722 14.8644 34.0892 14.8644C36.2347 14.8644 38.0281 15.591 39.4679 17.0451C40.9077 18.5008 41.6276 20.2993 41.6276 22.4439C41.6276 24.5902 40.9077 26.3904 39.4679 27.8436Z" fill="white"/>
<path d="M94.3068 29.2851V11.8582H90.6226V15.4997C88.7872 12.7047 86.1188 11.3076 82.6182 11.3076C79.6539 11.3076 77.1272 12.3871 75.0387 14.5459C72.9485 16.7065 71.9043 19.3397 71.9043 22.4439C71.9043 25.5506 72.9485 28.1822 75.0387 30.3427C77.1272 32.5024 79.6539 33.5819 82.6182 33.5819C86.1188 33.5819 88.7872 32.1848 90.6226 29.389V30.5749C90.6226 31.9317 91.7222 33.0313 93.0782 33.0313H99.5498V29.2851H94.3068ZM88.4629 27.8436C87.0231 29.2985 85.2296 30.0251 83.085 30.0251C80.9672 30.0251 79.1888 29.2985 77.7482 27.8436C76.3092 26.3904 75.5893 24.5902 75.5893 22.4439C75.5893 20.2993 76.3092 18.5008 77.7482 17.0451C79.1888 15.591 80.9672 14.8644 83.085 14.8644C85.2296 14.8644 87.0231 15.591 88.4629 17.0451C89.9019 18.5008 90.6226 20.2993 90.6226 22.4439C90.6226 24.5902 89.9019 26.3904 88.4629 27.8436Z" fill="white"/>
<path d="M68.8208 29.2196H68.8141V20.031C68.8141 17.3483 68.0665 15.2238 66.5697 13.6566C65.0738 12.0902 63.0834 11.3066 60.5993 11.3066C57.5219 11.3066 55.2348 12.5068 53.7389 14.9062V11.8581H50.0547V33.0311H53.7389V21.8094C53.7389 19.4376 54.3037 17.6802 55.4326 16.5362C56.5615 15.3931 58.044 14.8215 59.8786 14.8215C61.5162 14.8215 62.8009 15.295 63.7329 16.2404C64.6648 17.1865 65.1299 18.5199 65.1299 20.2422V30.5454C65.1299 30.7248 65.1509 30.8982 65.1869 31.0667C65.4149 32.1872 66.4055 33.0311 67.5938 33.0311H70.2857V29.285H68.8208V29.2196Z" fill="white"/>
<path d="M19.1915 5.47542C25.9983 4.82423 27.9494 3.50008 27.9494 3.50008C27.9494 3.50008 26.0494 6.22381 18.77 6.20454C18.77 6.20454 18.7624 4.32726 17.3779 2.85728C15.4143 0.772159 11.8173 0.0849403 6.31202 0.816577C4.52525 1.05459 -0.221584 1.68482 0.00804727 4.92145C0.140463 6.7694 2.00685 8.12791 5.71615 9.07326C8.25383 9.72025 11.4352 10.1074 14.8319 10.1921V28.5324C14.8319 33.6086 10.7169 37.7244 5.63989 37.7244V41.6206C12.8683 41.6206 18.7281 35.7608 18.7281 28.5324V10.1778C33.4831 10.1753 35.5171 1.23645 35.5171 1.23645C22.6829 -2.31278 19.4697 4.8058 19.1915 5.47542ZM5.63989 4.93905C5.98182 4.87368 6.37739 4.80831 6.83498 4.74797C12.4115 4.00628 14.0499 5.13516 14.4187 5.49888C14.7279 5.80394 14.7397 6.109 14.7313 6.22381C10.6055 6.10732 7.49789 5.52486 5.63989 4.93905Z" fill="white"/>
<path d="M18.6917 6.17084V6.16162L18.6875 6.17168L18.6917 6.17084Z" fill="white"/>
</svg>
