<svg width="93" height="35" viewBox="0 0 93 35" fill="none" xmlns="http://www.w3.org/2000/svg">
<path d="M89.8524 27.417L88.9046 25.7881H88.2757V27.417H87.7559V23.4343H89.0415C89.3424 23.4343 89.5967 23.4858 89.8038 23.5886C90.0116 23.6914 90.1673 23.8304 90.2701 24.0056C90.373 24.1807 90.4243 24.3808 90.4243 24.6053C90.4243 24.8798 90.3452 25.1216 90.1867 25.3308C90.029 25.5407 89.792 25.6796 89.4758 25.7484L90.4758 27.417H89.8524ZM88.2757 25.3711H89.0415C89.3229 25.3711 89.5349 25.3016 89.6752 25.1626C89.8163 25.0236 89.8872 24.8381 89.8872 24.6053C89.8872 24.369 89.8177 24.1862 89.6787 24.057C89.539 23.9277 89.3271 23.8624 89.0415 23.8624H88.2757V25.3711Z" fill="#D3E1C4"/>
<path d="M88.9949 29.127C86.9365 29.127 85.2617 27.4522 85.2617 25.3938C85.2617 23.3354 86.9365 21.6606 88.9949 21.6606C91.0533 21.6606 92.728 23.3354 92.728 25.3938C92.728 27.4522 91.0533 29.127 88.9949 29.127ZM88.9949 22.1276C87.1943 22.1276 85.7287 23.5925 85.7287 25.3938C85.7287 27.1944 87.1943 28.6593 88.9949 28.6593C90.7954 28.6593 92.261 27.1944 92.261 25.3938C92.261 23.5925 90.7954 22.1276 88.9949 22.1276Z" fill="#D3E1C4"/>
<path d="M37.5725 9.66848H34.5176V12.688C32.9957 10.3704 30.7838 9.21191 27.881 9.21191C25.4231 9.21191 23.3279 10.107 21.5954 11.8971C19.8623 13.6886 18.9971 15.8721 18.9971 18.4461C18.9971 21.0222 19.8623 23.2043 21.5954 24.9958C23.3279 26.7867 25.4231 27.6817 27.881 27.6817C30.7838 27.6817 32.9957 26.5233 34.5176 24.205V25.1883C34.5176 26.3134 35.4301 27.2252 36.5545 27.2252H38.7873V24.1188H37.5725V9.66848ZM32.7268 22.9236C31.5329 24.13 30.0458 24.7325 28.2667 24.7325C26.5113 24.7325 25.0367 24.13 23.8428 22.9236C22.6489 21.7186 22.052 20.2258 22.052 18.4461C22.052 16.6678 22.6489 15.1765 23.8428 13.9694C25.0367 12.7637 26.5113 12.1612 28.2667 12.1612C30.0458 12.1612 31.5329 12.7637 32.7268 13.9694C33.9207 15.1765 34.5176 16.6678 34.5176 18.4461C34.5176 20.2258 33.9207 21.7186 32.7268 22.9236Z" fill="#D3E1C4"/>
<path d="M78.2002 24.1188V9.66848H75.1453V12.688C73.6234 10.3704 71.4107 9.21191 68.508 9.21191C66.05 9.21191 63.9548 10.107 62.2231 11.8971C60.4899 13.6886 59.624 15.8721 59.624 18.4461C59.624 21.0222 60.4899 23.2043 62.2231 24.9958C63.9548 26.7867 66.05 27.6817 68.508 27.6817C71.4107 27.6817 73.6234 26.5233 75.1453 24.205V25.1883C75.1453 26.3134 76.057 27.2252 77.1814 27.2252H82.5477V24.1188H78.2002ZM73.3544 22.9236C72.1605 24.13 70.6734 24.7325 68.8951 24.7325C67.139 24.7325 65.6643 24.13 64.4698 22.9236C63.2766 21.7186 62.6796 20.2258 62.6796 18.4461C62.6796 16.6678 63.2766 15.1765 64.4698 13.9694C65.6643 12.7637 67.139 12.1612 68.8951 12.1612C70.6734 12.1612 72.1605 12.7637 73.3544 13.9694C74.5476 15.1765 75.1453 16.6678 75.1453 18.4461C75.1453 20.2258 74.5476 21.7186 73.3544 22.9236Z" fill="#D3E1C4"/>
<path d="M57.0657 24.0646H57.0602V16.4454C57.0602 14.2209 56.4403 12.4593 55.1992 11.1598C53.9587 9.86094 52.3083 9.21118 50.2485 9.21118C47.6967 9.21118 45.8002 10.2063 44.5598 12.1959V9.66845H41.5049V27.2251H44.5598V17.92C44.5598 15.9534 45.0282 14.4961 45.9642 13.5475C46.9003 12.5997 48.1296 12.1257 49.6508 12.1257C51.0087 12.1257 52.0741 12.5184 52.8468 13.3022C53.6196 14.0868 54.0053 15.1924 54.0053 16.6205V25.164C54.0053 25.3127 54.0226 25.4565 54.0525 25.5962C54.2416 26.5253 55.063 27.2251 56.0484 27.2251H58.2805V24.1188H57.0657V24.0646Z" fill="#D3E1C4"/>
<path d="M15.9136 4.37589C21.5578 3.83593 23.1756 2.73794 23.1756 2.73794C23.1756 2.73794 21.6002 4.99646 15.5641 4.98047C15.5641 4.98047 15.5578 3.42383 14.4098 2.20493C12.7816 0.475943 9.79892 -0.0938988 5.23393 0.512774C3.75234 0.710134 -0.183738 1.23272 0.0066728 3.91654C0.116472 5.44886 1.66408 6.57534 4.73984 7.35922C6.84408 7.8957 9.48203 8.21676 12.2986 8.28695V23.4948C12.2986 27.704 8.88648 31.1168 4.6766 31.1168V34.3475C10.6704 34.3475 15.5293 29.4885 15.5293 23.4948V8.27514C27.7642 8.27305 29.4508 0.860934 29.4508 0.860934C18.8087 -2.08209 16.1443 3.82064 15.9136 4.37589ZM4.6766 3.93113C4.96013 3.87693 5.28814 3.82272 5.66757 3.77269C10.2916 3.15768 11.6502 4.09375 11.956 4.39534C12.2124 4.6483 12.2221 4.90125 12.2152 4.99646C8.79405 4.89986 6.21726 4.41689 4.6766 3.93113Z" fill="#D3E1C4"/>
<path d="M15.4996 4.95247V4.94482L15.4961 4.95316L15.4996 4.95247Z" fill="#D3E1C4"/>
</svg>
