<?xml version="1.0" standalone="no"?>
<!DOCTYPE svg PUBLIC "-//W3C//DTD SVG 20010904//EN"
 "http://www.w3.org/TR/2001/REC-SVG-20010904/DTD/svg10.dtd">
<svg version="1.0" xmlns="http://www.w3.org/2000/svg"
 width="3840.000000pt" height="3840.000000pt" viewBox="0 0 3840.000000 3840.000000"
 preserveAspectRatio="xMidYMid meet">
<metadata>
Created by potrace 1.14, written by Peter Selinger 2001-2017
</metadata>
<g transform="translate(0.000000,3840.000000) scale(0.100000,-0.100000)"
fill="#000000" stroke="none">
<path d="M4439 22675 c-2 -2 -29 -6 -59 -9 -108 -10 -165 -18 -195 -26 -16 -5
-48 -12 -70 -16 -22 -4 -42 -8 -45 -9 -3 -1 -25 -7 -50 -14 -45 -12 -146 -45
-185 -61 -113 -45 -312 -160 -399 -231 -69 -56 -236 -232 -236 -249 0 -4 -7
-10 -15 -14 -8 -3 -15 -10 -15 -17 0 -6 -8 -23 -19 -37 -10 -15 -32 -53 -50
-84 -29 -54 -29 -61 -1 -60 10 0 136 13 165 17 17 2 53 7 80 10 28 2 61 7 75
9 30 5 101 16 150 22 38 5 75 12 75 14 0 1 14 3 30 5 17 2 46 6 65 10 19 4 44
9 55 10 11 2 20 4 20 5 0 1 11 3 25 6 14 2 54 11 91 20 36 8 72 16 80 18 7 1
34 8 59 15 25 8 50 14 55 16 6 1 17 4 25 7 8 3 47 16 85 28 73 22 113 38 179
71 21 11 41 18 43 15 5 -5 -112 -106 -151 -130 -71 -44 -282 -147 -299 -145
-1 0 -9 -2 -17 -5 -117 -40 -332 -90 -434 -101 -21 -3 -46 -7 -55 -9 -16 -5
-136 -15 -246 -21 -128 -8 -237 -7 -245 1 -5 5 -12 36 -15 68 -10 87 -60 230
-112 319 -73 124 -197 242 -343 324 -61 35 -199 92 -239 100 -14 2 -31 9 -38
15 -7 6 -13 8 -13 5 0 -3 -15 -1 -32 4 -18 5 -46 12 -63 14 -16 3 -50 10 -75
15 -46 10 -94 16 -210 26 -96 9 -358 9 -495 0 -154 -10 -170 -12 -230 -21 -27
-4 -66 -8 -85 -10 -39 -4 -94 -11 -155 -20 -115 -18 -249 -43 -285 -55 -41
-14 -175 -54 -180 -55 -19 -2 -220 -107 -220 -115 0 -6 -4 -10 -10 -10 -38 0
-157 -145 -185 -226 -24 -67 -28 -195 -9 -270 9 -32 19 -61 22 -64 4 -3 16
-23 27 -45 28 -56 137 -163 220 -217 87 -56 278 -147 340 -163 6 -1 17 -5 25
-8 21 -8 112 -38 130 -43 8 -2 60 -15 115 -30 118 -31 130 -34 170 -40 17 -3
47 -10 68 -15 21 -6 52 -12 70 -14 18 -3 43 -7 57 -10 13 -2 40 -7 60 -10 20
-3 47 -8 60 -11 14 -3 42 -7 62 -9 21 -2 50 -6 65 -9 15 -4 48 -8 73 -10 25
-3 70 -7 100 -11 30 -4 75 -9 100 -11 25 -2 70 -6 100 -9 64 -5 197 -13 365
-21 66 -3 122 -7 124 -10 7 -6 4 -2969 -3 -3054 -6 -83 -10 -103 -32 -205 -30
-140 -112 -341 -179 -439 -14 -20 -25 -39 -25 -41 0 -3 -21 -33 -47 -67 -79
-107 -249 -268 -358 -341 -88 -58 -275 -156 -308 -161 -7 -1 -18 -5 -24 -9 -7
-5 -13 -6 -13 -2 0 3 -12 -1 -27 -9 -25 -12 -121 -36 -208 -51 -52 -9 -128
-17 -186 -18 l-56 -2 0 -312 0 -312 106 5 c151 7 170 9 301 35 76 15 235 57
284 76 166 62 377 165 441 215 6 5 47 34 93 67 198 139 405 357 544 575 66
102 178 330 178 360 0 8 4 16 8 18 4 2 22 50 40 108 45 147 69 264 88 415 4
33 8 754 9 1602 1 848 4 1545 6 1548 3 3 73 7 155 9 135 4 224 10 339 21 77 7
159 17 175 20 9 2 41 6 70 10 57 7 67 9 145 25 28 6 59 12 70 14 154 30 398
104 540 163 395 164 707 394 931 685 41 53 74 99 74 102 0 3 14 25 31 50 37
56 123 236 138 291 11 42 5 57 -26 60 -10 1 -28 5 -40 9 -12 4 -30 9 -40 11
-238 55 -402 86 -538 100 -38 4 -79 9 -90 12 -24 6 -491 13 -496 8z m-2539
-688 c14 -3 41 -8 60 -11 196 -31 363 -115 386 -194 16 -57 16 -57 -71 -54
-108 3 -316 17 -415 26 -19 2 -64 7 -100 10 -36 4 -78 9 -93 12 -15 3 -47 7
-70 10 -23 2 -53 5 -67 8 -14 2 -47 7 -75 11 -27 3 -57 8 -66 11 -9 2 -33 7
-54 9 -20 3 -41 7 -45 10 -5 3 -28 8 -52 11 -24 3 -102 21 -175 40 -72 19
-135 34 -138 34 -3 0 -4 4 -1 9 3 5 32 12 63 16 32 4 64 8 73 10 8 2 44 6 80
10 36 4 73 9 83 11 10 2 58 6 105 9 48 4 88 8 90 10 5 4 456 -3 482 -8z"/>
<path d="M5198 20905 c-2 -2 -28 -6 -58 -10 -75 -10 -88 -13 -140 -26 -25 -6
-56 -13 -69 -15 -13 -3 -34 -10 -45 -16 -12 -6 -23 -11 -26 -10 -8 2 -81 -19
-99 -28 -9 -5 -61 -30 -116 -56 -281 -134 -520 -355 -733 -680 -7 -10 -15 -27
-18 -36 -4 -10 -10 -18 -15 -18 -5 0 -9 -4 -9 -9 0 -5 -17 -47 -38 -93 -38
-81 -52 -113 -58 -133 -105 -327 -129 -571 -89 -940 2 -16 4 -30 5 -30 1 0 3
-9 4 -20 5 -39 29 -141 43 -185 8 -25 16 -52 18 -61 22 -106 189 -417 284
-529 12 -14 33 -38 47 -55 184 -215 400 -378 634 -477 74 -31 122 -49 140 -53
3 -1 30 -8 60 -17 30 -9 73 -19 95 -24 22 -4 47 -9 55 -10 21 -5 87 -14 135
-20 53 -6 310 -5 355 1 19 3 56 7 81 9 103 10 326 74 409 118 19 10 40 18 47
18 7 0 13 5 13 11 0 5 4 8 8 5 4 -2 58 29 119 69 144 97 302 252 388 383 15
23 29 42 31 42 1 0 3 -51 3 -114 1 -63 3 -121 6 -128 2 -7 6 -24 9 -38 7 -45
45 -114 90 -165 45 -52 140 -108 206 -121 19 -4 143 -8 275 -8 l240 -1 0 298
c0 193 -3 298 -10 298 -5 1 -57 2 -115 3 l-105 1 -3 1393 c-2 1317 -3 1392
-20 1393 -66 3 -563 1 -567 -3 -3 -3 -5 -133 -6 -289 0 -248 -2 -281 -14 -264
-8 11 -18 25 -22 30 -5 6 -29 37 -54 70 -76 98 -196 215 -284 275 -27 18 -52
36 -55 39 -18 21 -206 113 -290 143 -66 23 -201 57 -250 64 -19 2 -60 8 -89
13 -50 8 -396 13 -403 6z m545 -594 c48 -11 103 -27 122 -35 19 -8 35 -13 35
-11 0 9 187 -89 243 -128 91 -62 246 -220 311 -316 100 -147 166 -316 194
-496 8 -55 8 -340 -1 -395 -16 -100 -30 -157 -66 -255 -26 -71 -105 -212 -157
-281 -87 -114 -269 -284 -303 -284 -6 0 -11 -4 -11 -8 0 -24 -276 -140 -370
-156 -19 -3 -46 -8 -60 -11 -74 -15 -249 -24 -256 -13 -3 4 -13 4 -23 -2 -10
-5 -20 -7 -23 -5 -2 2 -32 7 -65 10 -52 4 -105 14 -218 40 -11 3 -29 9 -40 14
-11 5 -48 19 -82 31 -35 12 -63 26 -63 31 0 5 -6 9 -14 9 -16 0 -156 90 -201
129 -67 58 -179 178 -220 235 -76 106 -157 276 -171 356 -3 14 -8 34 -11 45
-37 112 -47 416 -18 550 3 17 8 41 11 55 39 198 161 417 322 576 101 101 192
169 279 209 24 11 43 23 43 28 0 4 8 7 18 7 10 0 22 4 28 9 14 13 149 53 244
72 125 24 403 19 523 -10z"/>
<path d="M9485 20899 c-27 -5 -63 -11 -80 -13 -280 -42 -596 -238 -744 -461
-23 -35 -57 -75 -63 -75 -2 0 -3 16 -3 35 0 19 3 35 6 35 4 0 4 12 0 28 -6 25
-7 83 -1 107 1 6 1 12 0 15 -5 14 -5 89 1 113 4 15 4 27 0 27 -4 0 -6 25 -4
55 2 47 0 55 -15 56 -9 0 -141 1 -292 2 l-275 0 -3 -1694 -2 -1695 292 1 293
0 1 35 c1 19 3 40 4 45 1 6 1 15 0 20 -5 25 -2 174 4 183 3 6 3 13 -1 15 -7 5
-9 76 -3 102 1 6 1 15 0 20 -2 14 -3 208 0 220 1 6 1 12 0 15 -5 14 -5 89 1
113 4 15 4 27 0 27 -6 0 -7 59 -1 85 1 6 1 12 0 15 -5 14 -5 89 1 113 4 15 5
27 1 27 -6 0 -8 219 -2 245 1 6 1 12 0 15 -5 14 -5 89 1 113 4 15 4 27 0 27
-6 0 -7 59 -1 85 1 6 1 12 0 15 -5 14 -5 89 1 113 4 15 5 27 1 27 -10 0 0 319
13 392 10 58 14 77 28 139 9 36 26 92 38 125 13 32 22 62 21 67 -1 4 3 7 8 7
6 0 10 9 10 19 0 11 4 23 10 26 5 3 17 21 25 39 40 84 178 221 290 289 26 15
49 27 140 68 88 40 260 66 416 63 74 -2 149 -5 168 -8 99 -17 276 -86 319
-126 10 -9 23 -19 30 -21 19 -6 121 -110 140 -141 9 -15 20 -28 24 -28 4 0 8
-4 8 -9 0 -6 10 -27 23 -48 34 -57 79 -193 92 -278 14 -84 22 -391 11 -402 -3
-3 -1 -14 5 -25 7 -13 7 -23 0 -31 -6 -8 -6 -18 -1 -27 4 -7 4 -23 0 -35 -5
-14 -4 -27 2 -33 7 -7 6 -16 -1 -30 -6 -10 -8 -22 -5 -25 5 -4 8 -300 3 -323
-1 -5 -1 -13 1 -19 2 -13 2 -128 0 -140 -1 -6 -2 -14 -1 -20 4 -27 2 -248 -3
-252 -3 -3 -1 -14 5 -25 7 -13 7 -23 0 -31 -6 -8 -6 -18 -1 -27 4 -7 4 -23 0
-35 -5 -14 -4 -27 2 -33 7 -7 6 -16 -1 -30 -6 -10 -8 -22 -5 -25 3 -3 5 -65 4
-139 -1 -157 -2 -144 4 -188 20 -170 149 -314 308 -346 35 -7 485 -13 504 -7
7 3 10 98 10 301 l-1 297 -115 0 -115 0 -2 105 c-2 58 -4 436 -6 840 -2 404
-6 753 -10 775 -3 22 -8 56 -11 75 -4 30 -9 55 -30 145 -9 38 -29 103 -37 117
-5 10 -9 23 -9 29 0 24 -98 207 -148 278 -59 82 -87 114 -146 170 -21 20 -48
45 -60 56 -12 11 -48 38 -81 60 -33 22 -62 43 -65 46 -5 6 -111 57 -170 82
-155 65 -289 89 -520 92 -102 1 -207 -2 -235 -6z"/>
<path d="M13038 20905 c-2 -2 -27 -6 -57 -10 -59 -7 -56 -7 -156 -29 -94 -22
-91 -21 -165 -46 -249 -85 -516 -268 -705 -483 -82 -93 -173 -214 -192 -257
-4 -8 -9 -17 -13 -20 -22 -18 -154 -312 -165 -370 -2 -8 -4 -15 -5 -15 -1 0
-3 -7 -5 -15 -1 -8 -10 -42 -18 -75 -18 -70 -30 -139 -43 -260 -8 -69 -8 -341
0 -400 10 -79 19 -140 21 -150 1 -5 5 -28 9 -50 13 -67 51 -197 76 -260 49
-124 150 -316 180 -345 3 -3 21 -27 40 -55 112 -161 311 -353 475 -456 33 -21
65 -42 70 -46 11 -9 111 -57 185 -91 123 -54 298 -98 475 -118 49 -5 309 -5
350 0 17 2 53 7 80 10 102 12 256 52 355 92 193 78 333 173 477 324 103 107
113 118 113 129 0 5 3 11 8 13 4 2 22 23 40 47 l32 45 0 -115 c0 -169 26 -252
110 -343 46 -50 108 -85 184 -106 53 -14 129 -16 596 -16 l535 1 2 296 c2 273
1 297 -15 301 -9 2 -198 4 -419 3 l-403 -1 -2 1395 -3 1394 -288 0 c-158 0
-289 -2 -292 -4 -2 -3 -5 -133 -6 -290 -1 -267 -2 -283 -18 -261 -136 188
-246 298 -399 400 -85 56 -249 142 -273 142 -5 0 -17 4 -27 9 -29 16 -176 55
-252 67 -105 17 -177 22 -322 22 -92 0 -168 -2 -170 -3z m432 -575 c170 -25
261 -54 396 -125 72 -37 106 -57 114 -65 3 -3 30 -24 60 -47 118 -90 248 -244
323 -384 33 -61 90 -213 101 -269 3 -14 8 -37 11 -51 30 -147 26 -515 -7 -535
-4 -3 -6 -9 -3 -14 5 -8 -8 -60 -37 -145 -18 -53 -111 -235 -119 -235 -5 0 -9
-7 -9 -15 0 -8 -4 -15 -10 -15 -5 0 -10 -6 -10 -13 0 -7 -8 -20 -17 -29 -10
-8 -29 -30 -42 -48 -44 -57 -138 -145 -218 -202 -72 -51 -233 -143 -233 -132
0 2 -14 -3 -31 -12 -17 -8 -38 -17 -47 -19 -10 -1 -42 -10 -72 -19 -62 -17
-129 -29 -177 -30 -18 -1 -33 -3 -33 -6 0 -3 -43 -5 -95 -5 -52 0 -95 2 -95 5
0 3 -19 5 -42 4 -39 0 -63 3 -163 22 -80 15 -135 34 -224 76 -47 23 -88 42
-91 42 -3 1 -39 24 -80 51 -106 71 -273 242 -339 348 -74 120 -150 304 -152
369 0 4 -5 22 -10 40 -21 76 -30 292 -15 417 4 35 16 100 27 145 10 45 21 89
24 98 10 45 81 193 123 258 67 105 177 225 276 305 97 78 301 182 387 199 13
2 31 7 39 10 20 7 64 15 120 22 25 3 46 7 48 9 7 7 270 3 322 -5z"/>
<path d="M29897 20693 c-5 -4 -28 -10 -49 -12 -17 -2 -70 -64 -85 -99 -23 -55
-18 -133 13 -181 83 -126 282 -103 328 38 32 96 -5 195 -87 237 -27 15 -111
26 -120 17z"/>
<path d="M18277 20534 c-1 -1 -36 -5 -78 -8 -42 -3 -83 -8 -90 -10 -8 -3 -30
-7 -50 -10 -68 -10 -239 -60 -294 -86 -29 -14 -79 -32 -84 -30 -2 1 -7 -2 -10
-7 -3 -5 -35 -24 -71 -43 -36 -18 -71 -40 -78 -47 -7 -7 -17 -13 -21 -13 -26
0 -238 -182 -316 -271 -76 -87 -173 -229 -220 -324 -17 -33 -34 -63 -40 -67
-5 -4 -6 -8 -1 -8 5 0 4 -6 -1 -12 -18 -23 -72 -174 -99 -275 -29 -112 -29
-111 -39 -178 -13 -83 -14 -97 -20 -180 -11 -138 -11 -185 -2 -185 4 0 5 -5 2
-10 -6 -10 -10 -86 -5 -100 1 -3 3 -29 5 -58 4 -63 14 -141 20 -162 3 -8 7
-29 9 -45 5 -40 34 -157 56 -225 63 -195 176 -402 299 -550 83 -100 254 -259
279 -260 6 0 12 -4 12 -9 0 -4 28 -25 63 -46 34 -22 64 -42 65 -47 2 -4 9 -8
15 -8 11 0 137 -60 147 -70 3 -3 10 -6 15 -7 8 -2 79 -25 185 -61 19 -6 52
-13 175 -37 92 -18 352 -24 490 -12 75 7 107 11 195 29 30 6 60 11 65 12 6 1
16 5 23 9 6 5 12 6 12 3 0 -3 11 -1 25 4 14 5 36 12 48 14 40 9 155 55 229 92
82 41 211 122 216 135 2 5 8 9 13 9 23 0 205 179 281 275 51 66 125 182 158
250 8 17 19 33 25 37 5 4 6 8 1 8 -4 0 -2 10 6 23 26 40 49 118 35 122 -7 2
-63 3 -124 2 -105 0 -113 -2 -119 -21 -12 -38 -89 -192 -116 -230 -160 -231
-334 -375 -575 -479 -35 -14 -63 -24 -63 -21 0 2 -12 -2 -27 -10 -33 -16 -182
-51 -263 -61 -143 -18 -260 -21 -395 -11 -55 4 -102 9 -106 11 -3 2 -21 7 -40
10 -334 58 -655 271 -854 566 -43 63 -125 216 -138 255 -3 10 -13 37 -22 59
-17 45 -55 170 -60 200 -1 11 -6 36 -10 55 -4 19 -9 46 -10 60 -2 14 -4 25 -5
25 -6 0 -13 137 -14 275 -1 153 6 279 19 340 8 38 15 72 20 105 3 17 8 38 11
47 3 9 6 25 8 35 10 49 63 187 105 274 215 436 607 709 1087 754 105 10 393 3
414 -10 3 -2 24 -6 46 -9 122 -19 376 -103 404 -136 3 -3 25 -16 50 -28 145
-73 348 -273 439 -435 35 -61 88 -169 95 -193 6 -19 14 -21 131 -21 83 -1 125
3 125 10 0 6 -10 31 -21 56 -12 25 -33 71 -47 101 -35 75 -114 202 -174 280
-61 79 -215 230 -277 273 -25 17 -48 34 -51 38 -14 19 -234 132 -318 162 -141
51 -200 67 -311 83 -25 4 -55 9 -66 11 -41 10 -389 25 -398 17z"/>
<path d="M23835 20400 l-30 -5 0 -333 1 -332 -194 1 c-106 1 -195 -1 -198 -4
-3 -2 -6 -45 -7 -95 l-2 -90 198 2 c108 0 198 -1 198 -4 1 -3 3 -426 4 -940 2
-958 3 -989 42 -1120 9 -30 17 -57 18 -60 7 -30 65 -119 98 -153 60 -59 74
-69 137 -98 45 -21 115 -45 115 -39 0 1 12 -3 26 -8 41 -16 169 -25 367 -26
113 -1 186 3 190 9 4 6 7 49 8 98 l1 87 -41 0 c-391 1 -484 12 -582 72 -84 50
-126 130 -150 283 -8 48 -12 1895 -4 1895 3 1 178 2 390 3 l385 2 1 93 0 92
-25 0 c-15 1 -189 1 -388 1 -277 -1 -362 2 -365 12 -2 6 -4 157 -4 335 1 317
1 323 -19 321 -11 -1 -22 0 -25 1 -12 4 -118 5 -145 0z"/>
<path d="M29297 19783 c-1 -1 -29 -4 -62 -8 -60 -6 -77 -9 -125 -19 -91 -19
-135 -33 -210 -65 -190 -82 -331 -215 -416 -394 -20 -43 -39 -76 -42 -73 -2 3
-4 118 -4 256 l0 250 -92 1 c-84 1 -118 0 -123 -5 -2 -1 -4 -75 -3 -106 1 -8
1 -44 1 -80 -1 -36 -1 -72 0 -80 0 -8 0 -44 0 -80 -1 -36 -1 -72 0 -80 0 -8 0
-44 0 -80 -1 -36 -1 -72 0 -80 0 -8 0 -44 0 -80 -1 -36 -1 -72 0 -80 0 -8 0
-44 0 -80 -1 -36 -1 -72 0 -80 0 -8 0 -44 0 -80 -1 -36 -1 -72 0 -80 0 -8 0
-44 0 -80 -1 -36 -1 -72 0 -80 0 -8 0 -44 0 -80 -1 -36 -1 -72 0 -80 0 -8 0
-44 0 -80 -1 -36 -1 -72 0 -80 0 -13 0 -83 -1 -177 0 -12 0 -26 -1 -30 -1 -4
-1 -204 0 -443 l1 -435 108 0 107 1 2 784 c1 432 4 822 7 868 13 184 77 381
158 485 60 78 178 176 258 214 45 22 124 55 135 58 5 1 17 5 25 8 39 16 187
38 271 42 52 2 101 4 109 4 12 1 15 19 14 108 -1 60 -2 110 -3 114 -1 4 -110
7 -114 2z"/>
<path d="M31827 19784 c-2 -2 -21 -5 -131 -20 -21 -3 -48 -9 -60 -13 -11 -5
-25 -9 -31 -10 -30 -5 -94 -25 -139 -45 -28 -13 -58 -26 -66 -30 -8 -3 -28
-15 -45 -26 -16 -11 -37 -23 -45 -26 -55 -25 -191 -159 -246 -242 -21 -31 -42
-60 -48 -64 -6 -4 -7 -8 -3 -8 5 0 0 -16 -12 -36 -12 -19 -21 -41 -21 -49 0
-8 -4 -16 -9 -19 -5 -4 -8 106 -8 264 l2 270 -111 0 -111 0 1 -1317 1 -1317
107 -1 108 0 0 50 c5 1123 9 1597 15 1625 28 139 37 177 56 232 26 80 84 198
115 233 13 16 24 31 24 35 0 10 120 126 165 159 53 38 192 111 199 104 3 -3
11 -1 19 5 7 6 24 13 37 16 14 3 43 10 65 15 98 24 274 31 390 17 141 -18 302
-79 396 -152 51 -39 179 -175 179 -189 0 -8 4 -15 9 -15 4 0 22 -30 39 -67 40
-87 73 -173 67 -173 -2 0 0 -12 6 -26 5 -15 12 -43 14 -63 3 -20 8 -47 11 -61
4 -14 8 -178 10 -365 2 -187 4 -342 5 -345 1 -3 1 -9 0 -15 -5 -24 -2 -937 3
-942 3 -3 1 -13 -3 -22 -5 -9 -5 -25 -1 -36 7 -18 16 -20 105 -19 57 0 99 5
103 11 9 14 7 1604 -2 1698 -3 39 -8 81 -11 95 -2 14 -7 41 -9 60 -7 50 -35
150 -52 187 -7 17 -14 34 -14 37 0 16 -48 108 -89 171 -73 114 -226 251 -341
306 -101 49 -196 83 -259 94 -19 3 -37 8 -40 10 -15 9 -336 27 -344 19z"/>
<path d="M21556 19763 c-1 -1 -26 -4 -56 -7 -30 -3 -62 -7 -70 -9 -8 -2 -37
-7 -65 -12 -27 -4 -56 -12 -62 -17 -7 -6 -13 -8 -13 -5 0 3 -26 -3 -57 -15
-32 -11 -64 -20 -70 -21 -7 0 -13 -4 -13 -9 0 -4 -6 -8 -14 -8 -21 0 -142 -66
-220 -120 -237 -164 -415 -443 -482 -752 -8 -40 -17 -80 -19 -90 -8 -38 -18
-191 -18 -288 -1 -258 47 -477 149 -682 33 -68 94 -168 119 -194 5 -7 19 -24
30 -40 28 -39 146 -153 197 -191 163 -120 365 -203 558 -229 143 -19 339 -19
436 1 16 3 42 8 57 10 147 22 355 117 490 224 118 93 249 258 313 395 19 40
34 62 34 51 1 -11 2 -163 2 -337 0 -229 4 -318 12 -319 57 -5 199 -2 203 4 4
6 6 2119 3 2582 l0 50 -97 -2 c-54 -1 -103 -2 -109 -3 -8 0 -11 -96 -12 -336
0 -184 -3 -338 -6 -341 -3 -4 -6 1 -6 11 0 23 -54 128 -108 211 -62 93 -196
223 -303 296 -49 32 -91 59 -93 59 -3 0 -32 13 -65 29 -89 43 -244 84 -366 98
-48 5 -275 10 -279 6z m299 -198 c17 -3 41 -8 55 -10 56 -8 122 -26 172 -45
90 -36 168 -73 168 -82 0 -4 6 -8 14 -8 8 0 28 -11 44 -25 17 -14 33 -25 36
-25 21 0 148 -131 210 -215 115 -158 171 -293 211 -510 20 -109 20 -346 0
-467 -11 -63 -47 -203 -62 -238 -43 -101 -88 -190 -95 -190 -4 0 -8 -5 -8 -12
0 -18 -102 -147 -156 -198 -46 -43 -159 -130 -169 -130 -3 0 -22 -11 -43 -23
-60 -38 -209 -93 -307 -113 -127 -26 -415 -23 -491 6 -13 5 -24 8 -24 5 0 -2
-38 9 -85 25 -90 30 -226 98 -269 134 -14 12 -38 31 -54 43 -163 127 -310 380
-351 608 -6 33 -14 71 -17 85 -14 55 -13 376 1 466 71 466 336 783 740 889 85
23 90 24 169 31 39 3 72 7 74 9 5 4 208 -4 237 -10z"/>
<path d="M26286 19763 c-2 -2 -12 -4 -111 -19 -27 -4 -52 -8 -55 -9 -3 -1 -21
-5 -40 -9 -108 -24 -288 -102 -390 -170 -57 -37 -165 -130 -205 -176 -16 -19
-38 -42 -47 -52 -10 -10 -18 -21 -18 -26 0 -4 -10 -18 -22 -32 -13 -14 -32
-42 -43 -62 -11 -21 -23 -38 -27 -38 -5 0 -8 -9 -8 -19 0 -11 -4 -21 -8 -23
-15 -6 -96 -206 -108 -267 -3 -12 -11 -51 -19 -85 -24 -106 -28 -156 -29 -346
-1 -191 5 -271 29 -372 7 -32 13 -59 14 -61 0 -1 2 -9 5 -17 2 -8 14 -46 26
-85 22 -71 110 -257 136 -286 8 -8 14 -20 14 -26 0 -6 3 -13 8 -15 4 -1 24
-25 44 -53 48 -64 215 -225 235 -225 3 0 14 -7 24 -16 57 -52 302 -160 404
-178 17 -3 41 -8 55 -11 14 -3 43 -8 65 -11 22 -3 54 -7 70 -10 38 -5 262 -5
295 0 14 2 48 7 75 10 28 3 61 8 75 11 14 3 41 8 60 11 19 3 43 10 53 15 9 5
17 7 17 3 0 -3 7 -1 15 6 8 7 15 10 15 6 0 -4 14 0 30 9 17 9 30 13 30 11 0
-10 169 78 235 122 82 55 218 186 266 257 19 28 36 52 40 55 3 3 13 21 22 40
10 19 22 42 27 50 19 32 49 108 65 165 10 33 20 67 23 75 14 43 10 50 -35 51
-24 0 -74 1 -113 2 -38 1 -70 0 -71 -3 -1 -6 -8 -36 -12 -52 -2 -7 -8 -26 -12
-43 -14 -53 -76 -178 -113 -230 -77 -109 -185 -202 -307 -266 -86 -45 -221
-93 -235 -84 -6 3 -10 1 -10 -4 0 -6 -3 -10 -7 -9 -8 1 -108 -11 -148 -18 -26
-5 -232 -5 -267 0 -28 4 -93 15 -137 23 -13 2 -34 9 -45 15 -12 6 -21 10 -21
9 0 -8 -71 17 -141 49 -105 48 -188 105 -267 183 -64 62 -147 168 -147 186 0
5 -4 11 -9 13 -15 6 -80 155 -105 240 -26 91 -45 198 -50 295 l-4 62 1136 1
c624 0 1138 2 1140 5 15 15 3 444 -13 496 -3 10 -8 27 -10 40 -7 37 -34 123
-49 160 -8 19 -14 37 -15 42 0 4 -8 21 -16 37 -8 16 -16 33 -17 37 -1 5 -5 13
-10 18 -4 6 -31 46 -59 90 -49 75 -195 232 -248 265 -14 8 -32 22 -41 30 -38
34 -250 140 -280 140 -10 0 -21 4 -24 9 -4 7 -34 15 -136 36 -20 5 -82 15
-115 20 -37 6 -324 13 -329 8z m339 -198 c89 -19 121 -27 178 -46 67 -23 214
-95 235 -116 7 -7 17 -13 22 -13 4 0 43 -35 87 -77 125 -123 202 -249 248
-410 32 -109 33 -119 41 -270 l6 -123 -286 0 c-157 0 -558 0 -891 0 -333 0
-670 0 -750 0 l-145 0 6 63 c3 34 7 73 9 87 13 102 17 126 26 143 6 10 8 21 5
24 -3 3 1 18 10 34 8 16 12 29 10 29 -3 0 9 33 25 72 36 88 139 257 157 258 6
0 12 5 12 11 0 11 97 108 150 149 28 22 197 117 210 118 3 0 18 5 33 11 16 6
34 11 41 11 7 0 16 3 20 7 3 4 12 8 19 10 7 1 30 7 52 13 22 5 65 13 95 16 30
4 57 8 59 10 7 6 282 -3 316 -11z"/>
<path d="M34675 19761 c-2 -2 -26 -5 -52 -7 -66 -5 -187 -31 -253 -55 -30 -11
-59 -21 -65 -22 -32 -7 -161 -76 -233 -124 -181 -120 -332 -307 -430 -533 -19
-43 -44 -114 -48 -135 -1 -5 -7 -28 -13 -51 -34 -127 -46 -232 -45 -419 1
-151 6 -237 19 -295 3 -14 8 -38 11 -55 3 -16 14 -61 25 -100 26 -93 23 -84
44 -135 11 -25 18 -46 17 -47 -1 -2 13 -29 30 -60 150 -280 352 -465 623 -574
84 -33 105 -40 220 -63 152 -32 377 -36 501 -11 12 3 39 7 60 11 47 8 55 9 74
17 8 3 40 13 70 23 106 33 296 135 308 166 2 4 8 8 13 8 18 0 166 142 208 201
71 97 141 220 141 248 0 6 4 12 9 15 4 3 7 -198 6 -447 -2 -421 -8 -545 -32
-607 -3 -8 -7 -19 -8 -25 -32 -129 -122 -290 -224 -399 -142 -151 -376 -264
-584 -282 -92 -8 -209 -11 -221 -5 -5 2 -32 5 -60 7 -190 13 -384 84 -541 198
-121 88 -249 256 -305 399 l-32 83 -96 -1 c-54 0 -102 -4 -109 -8 -9 -5 -5
-26 13 -80 26 -72 82 -198 93 -207 3 -3 15 -22 25 -42 11 -21 23 -38 28 -38 4
0 8 -6 8 -12 0 -12 27 -44 105 -128 100 -108 247 -204 410 -268 116 -45 212
-68 375 -87 72 -9 365 -5 365 5 0 1 14 3 30 5 17 2 44 7 60 10 17 3 37 7 45 9
22 4 122 36 145 47 42 19 80 32 88 31 4 -1 7 3 7 8 0 6 4 10 9 10 16 0 151 81
151 91 0 5 5 9 11 9 19 0 170 144 224 214 112 145 199 356 231 561 10 66 12
2915 2 2915 -58 3 -201 0 -206 -4 -3 -3 -5 -156 -5 -339 l0 -332 -20 45 c-102
233 -297 434 -532 546 -174 83 -329 115 -568 118 -65 0 -120 -1 -122 -3z m320
-195 c197 -32 356 -99 510 -215 32 -24 185 -183 185 -192 0 -4 6 -14 13 -21
57 -57 160 -293 183 -418 1 -8 8 -44 14 -80 30 -167 11 -504 -36 -615 -8 -19
-12 -35 -10 -35 8 0 -53 -142 -90 -209 -20 -36 -56 -91 -81 -123 -46 -60 -172
-188 -184 -188 -4 0 -14 -6 -21 -13 -42 -40 -174 -109 -283 -147 -141 -49
-403 -71 -545 -45 -25 5 -49 9 -55 10 -26 3 -91 18 -100 24 -5 3 -16 6 -24 7
-22 4 -123 46 -171 73 -25 13 -54 29 -65 35 -11 6 -22 13 -25 16 -3 3 -23 18
-45 35 -103 76 -227 230 -283 350 -32 66 -63 146 -68 169 -2 10 -8 33 -13 50
-52 164 -60 533 -14 706 3 14 6 28 5 32 -4 17 72 217 105 277 86 159 205 286
348 373 139 84 262 124 440 144 28 3 51 7 52 8 5 5 221 -2 258 -8z"/>
<path d="M29837 19732 c-12 -3 -17 -14 -18 -40 -1 -20 0 -41 1 -47 1 -5 2 -14
2 -20 0 -17 -1 -779 0 -795 0 -8 0 -44 -1 -80 -2 -67 -4 -833 -2 -860 0 -8 0
-44 0 -80 -1 -36 -1 -72 -1 -80 1 -8 1 -153 1 -322 0 -288 2 -308 18 -309 26
-1 165 -1 185 0 15 1 16 95 16 1319 l0 1317 -92 0 c-51 0 -100 -1 -109 -3z"/>
<path d="M37455 18495 c-68 -14 -173 -52 -195 -70 -8 -6 -35 -23 -60 -37 -146
-84 -290 -308 -317 -491 -7 -49 -7 -155 1 -212 35 -257 213 -477 463 -571 91
-34 106 -37 240 -40 140 -3 221 15 350 78 51 25 162 118 214 181 133 158 184
349 155 577 -10 83 -73 237 -117 286 -11 11 -19 24 -19 29 0 13 -129 134 -172
162 -68 42 -108 63 -123 63 -8 0 -15 5 -15 12 0 6 -3 9 -6 5 -3 -3 -18 -1 -33
5 -14 5 -35 12 -46 14 -11 2 -31 7 -45 10 -48 12 -215 11 -275 -1z m325 -105
c146 -49 215 -99 333 -240 18 -21 57 -96 74 -144 54 -147 49 -335 -15 -474
-18 -40 -68 -119 -89 -140 -7 -7 -18 -21 -25 -30 -34 -46 -228 -178 -228 -156
0 4 -6 2 -12 -4 -39 -31 -190 -51 -298 -38 -80 10 -209 52 -230 75 -3 4 -18
13 -35 21 -34 17 -175 153 -175 168 0 6 -6 17 -13 24 -11 12 -47 81 -68 133
-25 61 -40 238 -25 300 2 11 9 42 15 68 23 99 95 215 188 302 80 76 204 137
313 154 81 13 220 4 290 -19z"/>
<path d="M37359 18151 c-3 -47 -4 -728 -1 -741 3 -13 35 -17 93 -11 4 1 7 63
7 139 0 75 1 146 1 157 1 18 7 20 58 18 32 -1 61 -2 66 -2 4 -1 7 -5 7 -11 0
-10 12 -32 108 -191 29 -48 52 -92 52 -98 0 -6 8 -11 18 -12 102 -5 109 -4
104 11 -3 8 -45 80 -93 160 -87 147 -90 157 -45 164 18 2 68 36 84 55 53 67
68 179 33 249 -26 50 -84 99 -136 114 -22 6 -111 12 -197 13 -140 2 -158 1
-159 -14z m131 -74 c0 6 35 9 83 7 124 -3 169 -26 188 -97 20 -75 -8 -145 -71
-177 -14 -8 -69 -15 -127 -16 l-103 -3 -1 42 c-1 45 -1 209 0 241 1 15 4 16
16 6 8 -7 15 -8 15 -3z"/>
</g>
</svg>
